<?xml version="1.0" encoding="UTF-8"?>
<svg xmlns="http://www.w3.org/2000/svg" viewBox="0 0 639 340">
  <defs>
    <style>
      .cls-1 {
        fill: #58595b;
      }

      .cls-1, .cls-2, .cls-3, .cls-4, .cls-5, .cls-6 {
        stroke-width: 0px;
      }

      .cls-2 {
        fill: #1a171b;
      }

      .cls-7 {
        font-family: FiraCode-Bold, 'Fira Code';
        font-size: 156px;
        font-weight: 700;
      }

      .cls-7, .cls-5 {
        fill: #fff;
      }

      .cls-3, .cls-8, .cls-9, .cls-10 {
        fill: none;
      }

      .cls-8 {
        stroke-width: 15px;
      }

      .cls-8, .cls-9 {
        stroke: #ed1c24;
      }

      .cls-8, .cls-9, .cls-10 {
        stroke-miterlimit: 10;
      }

      .cls-4 {
        fill: #820000;
      }

      .cls-6 {
        fill: #231f20;
      }

      .cls-9 {
        stroke-width: 25px;
      }

      .cls-10 {
        stroke: #231f20;
        stroke-width: 22px;
      }
    </style>
  </defs>
  <g id="Layer_2" data-name="Layer 2">
    <rect class="cls-1" x="-40.85" y="-31.3" width="723.83" height="410.55"/>
    <polyline class="cls-10" points="389.62 -7.55 312.26 110.4 358.98 91.26 258.64 228.36 314.55 200.79 192.77 358.57"/>
    <circle class="cls-4" cx="419.49" cy="101.98" r="36.77"/>
    <path class="cls-2" d="m414.54,107.65l60.11,133.4-10.92,4.92-13.87-30.78-10.26,4.62-4.62-10.26-19.86,8.95,9.18,20.37,10.26-4.62,4.62,10.26,10.26-4.62,9.25,20.52,10.26-4.62,9.25,20.52,10.26-4.62,9.25,20.52,10.26-4.62,9.25,20.52,81.43-36.69-9.25-20.52,10.26-4.62-13.87-30.78,10.26-4.62-32.3-71.68-10.26,4.62-4.62-10.26-9.6,4.33,13.87,30.78-10.92,4.92-18.49-41.04-19.86,8.95,13.87,30.78-10.92,4.92-18.49-41.04-19.86,8.95,18.49,41.04-10.92,4.92-41.61-92.35-19.86,8.95Z"/>
    <path class="cls-6" d="m409.63,98.13l20.89-9.41,4.39,9.75,10.26-4.62,18.49,41.04,20.52-9.25,4.62,10.26,30.78-13.87,4.62,10.26,20.52-9.25,4.62,10.26,10.26-4.62,4.62,10.26,10.26-4.62,32.3,71.68-10.26,4.62,13.87,30.78-10.26,4.62,13.87,30.78-102.98,46.4-13.87-30.79-10.26,4.62-9.25-20.52-10.26,4.62-9.25-20.52-10.26,4.62-9.25-20.52-10.26,4.62-4.62-10.26-9.75,4.39-13.8-30.63,30.64-13.8,4.62,10.26,9.9-4.46-41.61-92.35,10.26-4.62-4.39-9.75Z"/>
    <path class="cls-5" d="m414.54,107.65l19.86-8.95,41.61,92.35,10.92-4.92-18.49-41.04,19.86-8.95,18.49,41.04,10.92-4.92-13.87-30.78,19.86-8.95,18.49,41.04,10.92-4.92-13.87-30.78,9.6-4.33,4.62,10.26,10.26-4.62,32.3,71.68-10.26,4.62,13.87,30.78-10.26,4.62,9.25,20.52-81.43,36.69-9.25-20.52-10.26,4.62-9.25-20.52-10.26,4.62-9.25-20.52-10.26,4.62-9.25-20.52-10.26,4.62-4.62-10.26-10.26,4.62-9.18-20.37,19.86-8.95,4.62,10.26,10.26-4.62,13.87,30.78,10.92-4.92-60.11-133.4Z"/>
  </g>
  <g id="Layer_1" data-name="Layer 1">
    <g>
      <rect class="cls-3" x="-43.15" y="20.28" width="653.62" height="349.51"/>
      <circle class="cls-8" cx="157.15" cy="146.79" r="92.3"/>
      <text class="cls-7" transform="translate(62.55 199.01)"><tspan x="0" y="0">11</tspan></text>
      <line class="cls-9" x1="206.55" y1="69.04" x2="111.57" y2="226.06"/>
    </g>
  </g>
</svg>